<svg version="1.1" xmlns="http://www.w3.org/2000/svg" xmlns:xlink="http://www.w3.org/1999/xlink" width="170.29722" height="44.83506" viewBox="0,0,170.29722,44.83506"><g transform="translate(-154.85139,-157.58247)"><g data-paper-data="{&quot;isPaintingLayer&quot;:true}" fill="#000000" fill-rule="nonzero" stroke="none" stroke-width="1" stroke-linecap="butt" stroke-linejoin="miter" stroke-miterlimit="10" stroke-dasharray="" stroke-dashoffset="0" style="mix-blend-mode: normal"><path d="M156.20444,174.00354c-0.24601,0 -0.44418,-0.082 -0.59452,-0.24601c-0.15034,-0.17764 -0.27335,-0.45788 -0.36901,-0.84053c-0.09567,-0.43738 -0.18451,-1.12067 -0.26651,-2.05007c-0.082,-0.94303 -0.123,-1.99544 -0.123,-3.15711c0,-1.25738 0.03417,-2.48059 0.1025,-3.66963c0.082,-1.20271 0.19817,-2.26192 0.34851,-3.17761c0.10934,-0.60136 0.26651,-1.04554 0.47152,-1.33255c0.21867,-0.30067 0.51935,-0.45102 0.90203,-0.45102c0.24601,0 0.46468,0.082 0.65602,0.24601c0.19134,0.16401 0.33485,0.45785 0.43051,0.88153c0.10934,0.42368 0.16401,1.02504 0.16401,1.80406c0,0.38268 -0.01366,0.82003 -0.041,1.31205c-0.02734,0.47835 -0.06834,1.01137 -0.123,1.59906h0.082c1.09337,-1.50339 2.05691,-2.69926 2.8906,-3.58762c0.83369,-0.90203 1.56489,-1.55122 2.19358,-1.94757c0.64236,-0.39635 1.20271,-0.59452 1.68102,-0.59452c0.38275,0 0.66976,0.123 0.86103,0.36901c0.20501,0.24601 0.30751,0.54668 0.30751,0.90203c0,0.75169 -0.56715,1.65372 -1.70152,2.70609c-1.1207,1.05237 -2.9316,2.31658 -5.43269,3.79263l0.16401,-0.38951c2.15941,1.36671 3.79263,2.57622 4.89967,3.62863c1.107,1.03867 1.66052,1.9612 1.66052,2.7676c0,0.35538 -0.11614,0.64916 -0.34851,0.88153c-0.21864,0.21864 -0.54665,0.32801 -0.98399,0.32801c-0.54668,0 -1.12754,-0.18451 -1.74256,-0.55352c-0.61502,-0.38265 -1.29838,-1.01817 -2.05007,-1.90657c-0.73803,-0.90203 -1.57855,-2.12521 -2.52159,-3.66963h-0.082c0.02734,0.31438 0.04784,0.64239 0.0615,0.98403c0.01366,0.32801 0.0205,0.65602 0.0205,0.98403c0,1.57169 -0.10934,2.69923 -0.32801,3.38262c-0.21867,0.66966 -0.61502,1.00453 -1.18904,1.00453zM173.26201,173.96254c-1.51705,0 -2.72659,-0.22551 -3.62863,-0.67652c-0.90203,-0.45102 -1.55129,-1.10017 -1.94757,-1.94757c-0.39638,-0.8474 -0.59452,-1.8587 -0.59452,-3.03411c0,-1.48971 0.27327,-2.75393 0.82003,-3.79263c0.56028,-1.05237 1.32568,-1.85873 2.29608,-2.41908c0.98403,-0.56036 2.09784,-0.84053 3.34162,-0.84053c1.46232,0 2.53522,0.34168 3.21861,1.02504c0.68329,0.66969 1.02504,1.55122 1.02504,2.64459c0,0.87469 -0.23238,1.63322 -0.69702,2.27558c-0.45102,0.62865 -1.07977,1.11391 -1.88607,1.45555c-0.8064,0.34164 -1.7358,0.51252 -2.7881,0.51252c-0.58776,0 -1.15491,-0.07514 -1.70156,-0.22551c-0.54675,-0.15037 -1.03877,-0.35538 -1.47605,-0.61502l0.49202,-0.90203c-0.041,0.32801 -0.0615,0.65602 -0.0615,0.98403c0,0.95667 0.30064,1.64692 0.90203,2.07057c0.60129,0.41001 1.45555,0.61502 2.56259,0.61502c0.86103,0 1.55119,-0.07514 2.07057,-0.22551c0.51928,-0.15037 0.95667,-0.29388 1.31205,-0.43051c0.35528,-0.15037 0.70379,-0.22551 1.04554,-0.22551c0.19127,0 0.36215,0.05463 0.51252,0.16401c0.16401,0.09564 0.29378,0.23914 0.38951,0.43051c0.10927,0.19137 0.16401,0.42365 0.16401,0.69702c0,0.41001 -0.20501,0.8064 -0.61502,1.18904c-0.41001,0.36901 -1.01827,0.67652 -1.82456,0.92253c-0.79276,0.23238 -1.76993,0.34851 -2.9316,0.34851zM172.07297,167.25881c0.9703,0 1.74933,-0.20501 2.33708,-0.61502c0.58765,-0.41001 0.88153,-0.9157 0.88153,-1.51705c0,-0.47835 -0.16401,-0.86787 -0.49202,-1.16854c-0.31438,-0.31435 -0.81326,-0.47152 -1.49655,-0.47152c-0.64239,0 -1.22328,0.123 -1.74256,0.36901c-0.50575,0.23234 -0.90203,0.53986 -1.18904,0.92253c-0.28701,0.38268 -0.43051,0.79953 -0.43051,1.25054c0,0.39635 0.18451,0.70386 0.55352,0.92253c0.38265,0.20501 0.9088,0.30751 1.57855,0.30751zM182.64888,173.83954c-0.42365,0 -0.75853,-0.09564 -1.00453,-0.28701c-0.24601,-0.20501 -0.44415,-0.53989 -0.59452,-1.00453c-0.20501,-0.68339 -0.36215,-1.54442 -0.47152,-2.58309c-0.09564,-1.0524 -0.1435,-2.34392 -0.1435,-3.87463c0,-0.94303 0.03424,-1.88607 0.1025,-2.8291c0.082,-0.9567 0.18451,-1.82456 0.30751,-2.60359c0.123,-0.79269 0.25288,-1.40771 0.38951,-1.84506c0.15037,-0.46468 0.32801,-0.78586 0.53302,-0.96353c0.20501,-0.17767 0.43738,-0.26651 0.69702,-0.26651c0.27338,0 0.49202,0.09567 0.65602,0.28701c0.16401,0.17767 0.29388,0.49885 0.38951,0.96353c0.082,0.45102 0.1435,1.00453 0.18451,1.66056c0.05474,0.65602 0.082,1.35988 0.082,2.11157c0,1.02504 -0.04777,2.10474 -0.1435,3.23911c-0.09564,1.13438 -0.22551,2.24821 -0.38951,3.34162c-0.15027,1.09341 -0.33478,2.09794 -0.55352,3.0136l-0.57402,-0.28701c0.35538,-0.43738 0.75853,-0.77903 1.20954,-1.02504c0.46475,-0.24601 0.8884,-0.36901 1.27104,-0.36901c0.31438,0 0.55352,0.08887 0.71752,0.26651c0.17774,0.16401 0.26651,0.42365 0.26651,0.77903c0,0.35538 -0.15714,0.71066 -0.47152,1.06604c-0.30064,0.35538 -0.67652,0.64916 -1.12754,0.88153c-0.45102,0.21864 -0.89516,0.32801 -1.33255,0.32801zM189.24601,158.07449c0.54665,0 0.93617,0.15034 1.16854,0.45102c0.24601,0.30067 0.36901,0.64919 0.36901,1.04554c0,0.49202 -0.15037,0.87469 -0.45102,1.14804c-0.28701,0.25967 -0.69702,0.38951 -1.23004,0.38951c-0.51939,0 -0.9089,-0.1435 -1.16854,-0.43051c-0.25974,-0.30067 -0.38951,-0.64919 -0.38951,-1.04554c0,-0.51935 0.15714,-0.90887 0.47152,-1.16854c0.31428,-0.25968 0.72429,-0.38951 1.23004,-0.38951zM189.36901,162.64615c0.43728,0 0.77903,0.41001 1.02504,1.23004c0.25964,0.82003 0.38951,2.12524 0.38951,3.91564c0,2.20044 -0.15724,3.78576 -0.47152,4.75617c-0.31438,0.9704 -0.79276,1.45555 -1.43505,1.45555c-0.49202,0 -0.85426,-0.35538 -1.08654,-1.06604c-0.23238,-0.72439 -0.34851,-1.9817 -0.34851,-3.77213c0,-2.20041 0.17764,-3.83363 0.53302,-4.89967c0.36901,-1.0797 0.83366,-1.61956 1.39405,-1.61956zM195.5019,173.83954c-0.42365,0 -0.75853,-0.09564 -1.00453,-0.28701c-0.24601,-0.20501 -0.44415,-0.53989 -0.59452,-1.00453c-0.20501,-0.68339 -0.36215,-1.54442 -0.47152,-2.58309c-0.09564,-1.0524 -0.1435,-2.34392 -0.1435,-3.87463c0,-0.94303 0.03413,-1.88607 0.1025,-2.8291c0.082,-0.9567 0.18451,-1.82456 0.30751,-2.60359c0.123,-0.79269 0.25288,-1.40771 0.38951,-1.84506c0.15037,-0.46468 0.32801,-0.78586 0.53302,-0.96353c0.20501,-0.17767 0.43738,-0.26651 0.69702,-0.26651c0.27338,0 0.49202,0.09567 0.65602,0.28701c0.16401,0.17767 0.29388,0.49885 0.38951,0.96353c0.082,0.45102 0.1435,1.00453 0.18451,1.66056c0.05463,0.65602 0.082,1.35988 0.082,2.11157c0,1.02504 -0.04787,2.10474 -0.1435,3.23911c-0.09564,1.13438 -0.22551,2.24821 -0.38951,3.34162c-0.15037,1.09341 -0.33488,2.09794 -0.55352,3.0136l-0.57402,-0.28701c0.35538,-0.43738 0.75853,-0.77903 1.20954,-1.02504c0.46465,-0.24601 0.8884,-0.36901 1.27104,-0.36901c0.31438,0 0.55352,0.08887 0.71752,0.26651c0.17764,0.16401 0.26651,0.42365 0.26651,0.77903c0,0.35538 -0.15714,0.71066 -0.47152,1.06604c-0.30064,0.35538 -0.67652,0.64916 -1.12754,0.88153c-0.45102,0.21864 -0.89516,0.32801 -1.33255,0.32801zM202.09893,158.07449c0.54675,0 0.93627,0.15034 1.16854,0.45102c0.24601,0.30067 0.36901,0.64919 0.36901,1.04554c0,0.49202 -0.15027,0.87469 -0.45102,1.14804c-0.28701,0.25967 -0.69702,0.38951 -1.23004,0.38951c-0.51928,0 -0.9088,-0.1435 -1.16854,-0.43051c-0.25964,-0.30067 -0.38951,-0.64919 -0.38951,-1.04554c0,-0.51935 0.15724,-0.90887 0.47152,-1.16854c0.31438,-0.25968 0.72439,-0.38951 1.23004,-0.38951zM202.22193,162.64615c0.43738,0 0.77903,0.41001 1.02504,1.23004c0.25974,0.82003 0.38951,2.12524 0.38951,3.91564c0,2.20044 -0.15714,3.78576 -0.47152,4.75617c-0.31428,0.9704 -0.79266,1.45555 -1.43505,1.45555c-0.49202,0 -0.85416,-0.35538 -1.08654,-1.06604c-0.23227,-0.72439 -0.34851,-1.9817 -0.34851,-3.77213c0,-2.20041 0.17774,-3.83363 0.53302,-4.89967c0.36901,-1.0797 0.83376,-1.61956 1.39405,-1.61956zM208.23192,161.04709c0.43728,0 0.73116,0.17767 0.88153,0.53302c0.16401,0.35535 0.24601,0.88153 0.24601,1.57855c0,0.16401 -0.01374,0.34168 -0.041,0.53302c-0.01374,0.17767 -0.041,0.34168 -0.082,0.49202l-0.041,-0.41001c0.32801,-0.88837 0.83366,-1.57855 1.51705,-2.07057c0.68329,-0.50568 1.40768,-0.75853 2.17308,-0.75853c0.84729,0 1.55119,0.23917 2.11157,0.71752c0.57402,0.47835 0.99767,1.14804 1.27104,2.00907c0.28701,0.86103 0.43051,1.87923 0.43051,3.05461c0,0.72436 -0.03424,1.44192 -0.1025,2.15257c-0.05474,0.69702 -0.13674,1.33941 -0.24601,1.92707c-0.09574,0.57402 -0.20501,1.04554 -0.32801,1.41455c-0.16401,0.46465 -0.37588,0.81316 -0.63552,1.04554c-0.25974,0.21864 -0.56725,0.32801 -0.92253,0.32801c-0.35538,0 -0.62876,-0.12987 -0.82003,-0.38951c-0.19137,-0.25964 -0.28701,-0.60815 -0.28701,-1.04554c0,-0.46465 0.03413,-1.02504 0.1025,-1.68106c0.06827,-0.66966 0.12977,-1.34618 0.18451,-2.02957c0.06827,-0.69702 0.1025,-1.32571 0.1025,-1.88607c0,-1.9134 -0.62876,-2.8701 -1.88607,-2.8701c-0.66976,0 -1.23004,0.30067 -1.68106,0.90203c-0.45102,0.58768 -0.75176,1.42821 -0.90203,2.52159c-0.041,0.36901 -0.0615,0.8269 -0.0615,1.37355c0,0.54665 0,1.09341 0,1.64006c0.01363,0.53302 0,0.98403 -0.041,1.35305c-0.05474,0.82003 -0.21187,1.40768 -0.47152,1.76306c-0.24601,0.35538 -0.58776,0.53302 -1.02504,0.53302c-0.50575,0 -0.8884,-0.23238 -1.14804,-0.69702c-0.25974,-0.47838 -0.38951,-1.27791 -0.38951,-2.39858c0,-0.57402 0.01363,-1.21641 0.041,-1.92707c0.02727,-0.71066 0.0615,-1.42139 0.1025,-2.13207c0.05463,-0.72436 0.11614,-1.38038 0.18451,-1.96807c0.13664,-1.10704 0.33478,-1.98173 0.59452,-2.62409c0.25964,-0.65602 0.64916,-0.98403 1.16854,-0.98403zM223.1096,173.47052c-1.28468,0 -2.33021,-0.49202 -3.13661,-1.47605c-0.80629,-0.99767 -1.20954,-2.50795 -1.20954,-4.53066c0,-2.15941 0.38951,-3.73797 1.16854,-4.73566c0.77903,-0.9977 1.80406,-1.49655 3.07511,-1.49655c0.75176,0 1.41455,0.19134 1.98857,0.57402c0.57402,0.38268 1.06604,0.92253 1.47605,1.61956l-0.16401,0.28701c-0.041,-0.19134 -0.07514,-0.39635 -0.1025,-0.61502c-0.02727,-0.21867 -0.041,-0.38268 -0.041,-0.49202c0,-0.56036 0.08887,-0.99087 0.26651,-1.29154c0.19137,-0.31435 0.48525,-0.47152 0.88153,-0.47152c0.43738,0 0.77903,0.17767 1.02504,0.53302c0.25974,0.35535 0.45788,0.86103 0.59452,1.51705c0.17774,0.66969 0.32801,1.52389 0.45102,2.56259c0.123,1.02504 0.18451,2.06373 0.18451,3.11611c0,1.31205 -0.04777,2.41222 -0.1435,3.30061c-0.09564,0.8884 -0.25277,1.62642 -0.47152,2.21408c-0.21864,0.58765 -0.50565,1.10017 -0.86103,1.53755c-0.58765,0.71066 -1.34618,1.25054 -2.27558,1.61956c-0.91566,0.38265 -1.97483,0.57402 -3.17761,0.57402c-0.86103,0 -1.55119,-0.082 -2.07057,-0.24601c-0.51928,-0.15037 -0.89516,-0.36215 -1.12754,-0.63552c-0.21864,-0.25964 -0.32801,-0.55352 -0.32801,-0.88153c0,-0.34164 0.09574,-0.62865 0.28701,-0.86103c0.19137,-0.21864 0.47838,-0.32801 0.86103,-0.32801c0.34175,0 0.73803,0.05463 1.18904,0.16401c0.46475,0.10937 1.0114,0.16401 1.64006,0.16401c1.32578,0 2.26195,-0.31438 2.8086,-0.94303c0.56039,-0.61502 0.84053,-1.50342 0.84053,-2.66509c0,-0.31438 -0.0205,-0.68339 -0.0615,-1.10704l0.28701,0.1025c-0.34164,0.87466 -0.84729,1.57855 -1.51705,2.11157c-0.66966,0.51939 -1.44868,0.77903 -2.33708,0.77903zM223.88862,170.94894c0.43738,0 0.87477,-0.11614 1.31205,-0.34851c0.43738,-0.23238 0.79953,-0.61502 1.08654,-1.14804c0.28701,-0.53302 0.43051,-1.25054 0.43051,-2.15257c0,-1.0797 -0.25277,-1.96123 -0.75853,-2.64459c-0.50565,-0.68336 -1.21631,-1.02504 -2.13207,-1.02504c-0.79266,0 -1.37355,0.30067 -1.74256,0.90203c-0.36901,0.60136 -0.55352,1.51022 -0.55352,2.72659c0,1.16167 0.18451,2.07057 0.55352,2.72659c0.36901,0.64239 0.9704,0.96353 1.80406,0.96353zM240.00475,174.08554c-1.33931,0 -2.38485,-0.49888 -3.13661,-1.49655c-0.75166,-1.0114 -1.12754,-2.54896 -1.12754,-4.61266c0,-2.05007 0.36901,-3.54662 1.10704,-4.48966c0.75176,-0.9567 1.82456,-1.43505 3.21861,-1.43505c0.79276,0 1.48292,0.16401 2.07057,0.49202c0.60139,0.32801 1.13441,0.79269 1.59906,1.39405l-0.16401,0.082c-0.123,-0.56036 -0.24601,-1.15488 -0.36901,-1.78356c-0.123,-0.62869 -0.22551,-1.22321 -0.30751,-1.78356c-0.06827,-0.57402 -0.1025,-1.02504 -0.1025,-1.35305c0,-0.46468 0.07524,-0.82003 0.22551,-1.06604c0.15037,-0.25968 0.38951,-0.38951 0.71752,-0.38951c0.46475,0 0.84053,0.19817 1.12754,0.59452c0.28701,0.38268 0.52625,0.9772 0.71752,1.78356c0.17774,0.72436 0.33488,1.58539 0.47152,2.58309c0.13674,0.98403 0.24601,2.01591 0.32801,3.09561c0.09574,1.06604 0.1435,2.09107 0.1435,3.07511c0,1.36668 -0.07514,2.43272 -0.22551,3.19811c-0.13664,0.75166 -0.33478,1.27791 -0.59452,1.57855c-0.24601,0.30064 -0.53978,0.45102 -0.88153,0.45102c-0.42365,0 -0.71066,-0.21187 -0.86103,-0.63552c-0.15027,-0.42365 -0.21177,-1.11391 -0.18451,-2.07057h0.30751c-0.36901,0.8474 -0.9088,1.52392 -1.61956,2.02957c-0.69702,0.50565 -1.51705,0.75853 -2.46009,0.75853zM241.09128,171.54346c0.49202,0 0.94303,-0.123 1.35305,-0.36901c0.42375,-0.25964 0.75853,-0.65602 1.00453,-1.18904c0.25974,-0.53302 0.38951,-1.20954 0.38951,-2.02957c0,-1.05237 -0.23914,-1.90657 -0.71752,-2.56259c-0.47828,-0.66969 -1.16854,-1.00453 -2.07057,-1.00453c-0.71066,0 -1.29154,0.29385 -1.74256,0.88153c-0.43728,0.58768 -0.65602,1.47605 -0.65602,2.66509c0,1.0524 0.21874,1.9202 0.65602,2.60359c0.45102,0.66966 1.04554,1.00453 1.78356,1.00453zM257.98315,174.00354c-0.46537,0 -0.7862,-0.17764 -0.96353,-0.53302c-0.16401,-0.36901 -0.26036,-0.9499 -0.28701,-1.74256l0.20501,0.1025c-0.7656,1.48968 -2.21428,2.23458 -4.34636,2.23458c-0.9704,0 -1.77669,-0.17087 -2.41908,-0.51252c-0.64239,-0.35538 -1.12067,-0.82003 -1.43505,-1.39405c-0.30064,-0.58765 -0.45102,-1.22317 -0.45102,-1.90657c0,-1.17541 0.41001,-2.10471 1.23004,-2.7881c0.82003,-0.69702 1.90657,-1.04554 3.25961,-1.04554c0.8884,0 1.66056,0.12984 2.31658,0.38951c0.65602,0.25967 1.21641,0.62186 1.68126,1.08654l-0.34872,-0.041c-0.09564,-1.38038 -0.39638,-2.36442 -0.90203,-2.9521c-0.49202,-0.60136 -1.19591,-0.90203 -2.11157,-0.90203c-0.53302,0 -1.02504,0.082 -1.47605,0.24601c-0.45102,0.16401 -0.8679,0.33485 -1.25054,0.51252c-0.36901,0.16401 -0.71752,0.24601 -1.04554,0.24601c-0.32801,0 -0.58765,-0.10934 -0.77903,-0.32801c-0.17764,-0.21867 -0.26651,-0.49885 -0.26651,-0.84053c0,-0.49202 0.23238,-0.9567 0.69702,-1.39405c0.47838,-0.43735 1.10704,-0.79269 1.88607,-1.06604c0.77903,-0.27335 1.62642,-0.41001 2.54209,-0.41001c1.10704,0 2.05694,0.26651 2.8496,0.79953c0.79256,0.53302 1.39425,1.31205 1.80427,2.33708c0.35466,0.87469 0.60785,1.8519 0.75853,2.9316c0.14966,1.07967 0.22551,2.23458 0.22551,3.46462c0,0.9294 -0.04818,1.64692 -0.1435,2.15257c-0.09635,0.50565 -0.24601,0.86103 -0.45102,1.06604c-0.19168,0.19137 -0.45102,0.28701 -0.77903,0.28701zM253.45229,171.70746c0.45102,0 0.9089,-0.0615 1.37355,-0.18451c0.46465,-0.13664 0.85416,-0.33488 1.16854,-0.59452c0.31438,-0.25964 0.47152,-0.58089 0.47152,-0.96353c0,-0.32801 -0.13664,-0.59452 -0.41001,-0.79953c-0.25964,-0.21864 -0.60815,-0.38265 -1.04554,-0.49202c-0.42365,-0.10937 -0.88153,-0.16401 -1.37355,-0.16401c-0.83366,0 -1.46918,0.1435 -1.90657,0.43051c-0.42365,0.28701 -0.63552,0.66966 -0.63552,1.14804c0,0.51939 0.19814,0.92253 0.59452,1.20954c0.41001,0.27338 0.99767,0.41001 1.76306,0.41001zM263.94783,161.04709c0.43769,0 0.73188,0.17767 0.88153,0.53302c0.16401,0.35535 0.24601,0.88153 0.24601,1.57855c0,0.16401 -0.01333,0.34168 -0.041,0.53302c-0.01333,0.17767 -0.041,0.34168 -0.082,0.49202l-0.041,-0.41001c0.32801,-0.88837 0.83438,-1.57855 1.51705,-2.07057c0.6837,-0.50568 1.4084,-0.75853 2.17308,-0.75853c0.8477,0 1.5519,0.23917 2.11157,0.71752c0.57402,0.47835 0.99838,1.14804 1.27104,2.00907c0.28701,0.86103 0.43051,1.87923 0.43051,3.05461c0,0.72436 -0.03383,1.44192 -0.1025,2.15257c-0.05433,0.69702 -0.13633,1.33941 -0.24601,1.92707c-0.09533,0.57402 -0.20501,1.04554 -0.32801,1.41455c-0.16401,0.46465 -0.37516,0.81316 -0.63552,1.04554c-0.25933,0.21864 -0.56684,0.32801 -0.92253,0.32801c-0.35466,0 -0.62835,-0.12987 -0.82003,-0.38951c-0.19066,-0.25964 -0.28701,-0.60815 -0.28701,-1.04554c0,-0.46465 0.03485,-1.02504 0.1025,-1.68106c0.06868,-0.66966 0.13018,-1.34618 0.18451,-2.02957c0.06868,-0.69702 0.1025,-1.32571 0.1025,-1.88607c0,-1.9134 -0.62835,-2.8701 -1.88607,-2.8701c-0.66935,0 -1.23004,0.30067 -1.68106,0.90203c-0.45102,0.58768 -0.75135,1.42821 -0.90203,2.52159c-0.041,0.36901 -0.0615,0.8269 -0.0615,1.37355c0,0.54665 0,1.09341 0,1.64006c0.01435,0.53302 0,0.98403 -0.041,1.35305c-0.05433,0.82003 -0.21116,1.40768 -0.47152,1.76306c-0.24601,0.35538 -0.58735,0.53302 -1.02504,0.53302c-0.50534,0 -0.88768,-0.23238 -1.14804,-0.69702c-0.25933,-0.47838 -0.38951,-1.27791 -0.38951,-2.39858c0,-0.57402 0.01435,-1.21641 0.041,-1.92707c0.02768,-0.71066 0.0615,-1.42139 0.1025,-2.13207c0.05535,-0.72436 0.11685,-1.38038 0.18451,-1.96807c0.13735,-1.10704 0.33519,-1.98173 0.59452,-2.62409c0.26036,-0.65602 0.64987,-0.98403 1.16854,-0.98403zM282.68446,173.92154c-0.83438,0 -1.45555,-0.10937 -1.86556,-0.32801c-0.41001,-0.21864 -0.75238,-0.61502 -1.02504,-1.18904c-0.19168,-0.43738 -0.35569,-1.14804 -0.49202,-2.13207c-0.123,-0.99767 -0.18451,-2.28921 -0.18451,-3.87463c0,-1.10704 0.0205,-2.16624 0.0615,-3.17761c0.05433,-1.01137 0.12915,-1.7904 0.22551,-2.33708c0.10865,-0.69702 0.28701,-1.19588 0.53302,-1.49655c0.25933,-0.30067 0.58017,-0.45102 0.96353,-0.45102c0.34134,0 0.60785,0.15034 0.79953,0.45102c0.20501,0.30067 0.34851,0.71069 0.43051,1.23004c0.082,0.50568 0.123,1.06604 0.123,1.68106c0,1.66739 -0.0615,3.35528 -0.18451,5.06368c-0.10968,1.70843 -0.26651,3.28011 -0.47152,4.71516l-0.26651,-0.36901c0.61502,-0.42365 1.27104,-0.78589 1.96807,-1.08654c0.71035,-0.30064 1.4002,-0.53302 2.07057,-0.69702c0.68267,-0.16401 1.27719,-0.24601 1.78356,-0.24601c0.50534,0 0.87436,0.1025 1.10704,0.30751c0.24601,0.20501 0.36901,0.49888 0.36901,0.88153c0,0.38265 -0.17118,0.77216 -0.51252,1.16854c-0.32801,0.38265 -0.79953,0.71752 -1.41455,1.00453c-0.34236,0.16401 -0.7452,0.31438 -1.20954,0.45102c-0.46537,0.123 -0.94303,0.22551 -1.43505,0.30751c-0.47869,0.082 -0.93688,0.123 -1.37355,0.123zM299.55142,173.67553c-0.36901,0 -0.65602,-0.123 -0.86103,-0.36901c-0.19168,-0.25964 -0.32186,-0.58765 -0.38951,-0.98403c-0.06868,-0.41001 -0.1025,-0.84053 -0.1025,-1.29154l0.1025,-0.082c-0.13735,0.58765 -0.40386,1.09341 -0.79953,1.51705c-0.39669,0.42365 -0.85488,0.75166 -1.37355,0.98403c-0.51969,0.21864 -1.03939,0.32801 -1.55805,0.32801c-0.69702,0 -1.33255,-0.16401 -1.90657,-0.49202c-0.57402,-0.32801 -1.01889,-0.83366 -1.33255,-1.51705c-0.31469,-0.72439 -0.56069,-1.63319 -0.73803,-2.72659c-0.17836,-1.10704 -0.26651,-2.24141 -0.26651,-3.40312c0,-0.62869 0.02665,-1.20954 0.082,-1.74256c0.05433,-0.53302 0.1435,-0.97037 0.26651,-1.31205c0.10865,-0.35535 0.27266,-0.61502 0.49202,-0.77903c0.21833,-0.17767 0.49817,-0.26651 0.84053,-0.26651c0.39566,0 0.70317,0.15717 0.92253,0.47152c0.23166,0.30067 0.37516,0.72436 0.43051,1.27104c0.05433,0.45102 0.08815,1.01137 0.1025,1.68106c0.02665,0.65602 0.04715,1.31888 0.0615,1.98857c0.02665,0.65602 0.0615,1.20954 0.1025,1.66056c0.082,0.82003 0.29316,1.42818 0.63552,1.82456c0.34134,0.38265 0.75853,0.57402 1.25054,0.57402c0.72368,0 1.27719,-0.27338 1.66056,-0.82003c0.38234,-0.54665 0.57402,-1.31205 0.57402,-2.29608c0,-0.49202 -0.02768,-1.04554 -0.082,-1.66056c-0.05535,-0.62869 -0.11685,-1.23688 -0.18451,-1.82456c-0.05535,-0.58768 -0.082,-1.07287 -0.082,-1.45555c0,-0.64236 0.10865,-1.1002 0.32801,-1.37355c0.21833,-0.28701 0.51867,-0.43051 0.90203,-0.43051c0.32801,0 0.60067,0.08884 0.82003,0.26651c0.23166,0.17767 0.41616,0.42368 0.55352,0.73803c0.19066,0.41001 0.35466,0.97037 0.49202,1.68106c0.13633,0.71069 0.24601,1.51705 0.32801,2.41908c0.082,0.90203 0.123,1.85193 0.123,2.8496c0,1.53069 -0.1025,2.67873 -0.30751,3.44412c-0.20501,0.75166 -0.56787,1.12754 -1.08654,1.12754zM312.39819,174.00354c-0.46537,0 -0.7862,-0.17764 -0.96353,-0.53302c-0.16401,-0.36901 -0.26036,-0.9499 -0.28701,-1.74256l0.20501,0.1025c-0.7657,1.48968 -2.21408,2.23458 -4.34615,2.23458c-0.97071,0 -1.77741,-0.17087 -2.41908,-0.51252c-0.6427,-0.35538 -1.12139,-0.82003 -1.43505,-1.39405c-0.30136,-0.58765 -0.45102,-1.22317 -0.45102,-1.90657c0,-1.17541 0.41001,-2.10471 1.23004,-2.7881c0.82003,-0.69702 1.90657,-1.04554 3.25961,-1.04554c0.88768,0 1.66056,0.12984 2.31658,0.38951c0.65602,0.25967 1.21569,0.62186 1.68106,1.08654l-0.34851,-0.041c-0.09635,-1.38038 -0.39669,-2.36442 -0.90203,-2.9521c-0.49202,-0.60136 -1.19622,-0.90203 -2.11157,-0.90203c-0.53302,0 -1.02504,0.082 -1.47605,0.24601c-0.45102,0.16401 -0.86821,0.33485 -1.25054,0.51252c-0.36901,0.16401 -0.71752,0.24601 -1.04554,0.24601c-0.32801,0 -0.58837,-0.10934 -0.77903,-0.32801c-0.17836,-0.21867 -0.26651,-0.49885 -0.26651,-0.84053c0,-0.49202 0.23166,-0.9567 0.69702,-1.39405c0.47767,-0.43735 1.10704,-0.79269 1.88607,-1.06604c0.77903,-0.27335 1.62571,-0.41001 2.54209,-0.41001c1.10704,0 2.05622,0.26651 2.8496,0.79953c0.79235,0.53302 1.39405,1.31205 1.80406,2.33708c0.35466,0.87469 0.60785,1.8519 0.75853,2.9316c0.14966,1.07967 0.22551,2.23458 0.22551,3.46462c0,0.9294 -0.04818,1.64692 -0.1435,2.15257c-0.09635,0.50565 -0.24601,0.86103 -0.45102,1.06604c-0.19168,0.19137 -0.45102,0.28701 -0.77903,0.28701zM307.86754,171.70746c0.45102,0 0.90818,-0.0615 1.37355,-0.18451c0.46434,-0.13664 0.85385,-0.33488 1.16854,-0.59452c0.31366,-0.25964 0.47152,-0.58089 0.47152,-0.96353c0,-0.32801 -0.13735,-0.59452 -0.41001,-0.79953c-0.26036,-0.21864 -0.60887,-0.38265 -1.04554,-0.49202c-0.42436,-0.10937 -0.88153,-0.16401 -1.37355,-0.16401c-0.83438,0 -1.4699,0.1435 -1.90657,0.43051c-0.42436,0.28701 -0.63552,0.66966 -0.63552,1.14804c0,0.51939 0.19783,0.92253 0.59452,1.20954c0.41001,0.27338 0.99736,0.41001 1.76306,0.41001zM321.45848,160.96509c1.21672,0 2.09107,0.17767 2.62409,0.53302c0.53302,0.35535 0.79953,0.81319 0.79953,1.37355c0,0.32801 -0.11583,0.60136 -0.34851,0.82003c-0.21833,0.20501 -0.53302,0.30751 -0.94303,0.30751c-0.42334,0 -0.86718,-0.0615 -1.33255,-0.18451c-0.45102,-0.123 -0.97686,-0.18451 -1.57855,-0.18451c-0.69702,0 -1.21569,0.13667 -1.55805,0.41001c-0.34134,0.27335 -0.51252,0.62186 -0.51252,1.04554c0,0.39635 0.15068,0.71069 0.45102,0.94303c0.31469,0.21867 0.90921,0.38268 1.78356,0.49202c0.97071,0.10934 1.77024,0.28701 2.39858,0.53302c0.6427,0.23234 1.12139,0.58768 1.43505,1.06604c0.31469,0.46465 0.47152,1.10704 0.47152,1.92707c0,1.29841 -0.45717,2.26195 -1.37355,2.8906c-0.91536,0.62865 -2.17923,0.94303 -3.79263,0.94303c-1.02504,0 -1.83789,-0.082 -2.43958,-0.24601c-0.60067,-0.16401 -1.03836,-0.39638 -1.31205,-0.69702c-0.25933,-0.30064 -0.38951,-0.65602 -0.38951,-1.06604c0,-0.35538 0.11685,-0.62865 0.34851,-0.82003c0.24601,-0.20501 0.53302,-0.30751 0.86103,-0.30751c0.31469,0 0.64987,0.041 1.00453,0.123c0.35569,0.06837 0.73188,0.1435 1.12754,0.22551c0.39669,0.082 0.8067,0.123 1.23004,0.123c1.3674,0 2.05007,-0.42365 2.05007,-1.27104c0,-0.28701 -0.06765,-0.51939 -0.20501,-0.69702c-0.13633,-0.17764 -0.38234,-0.32114 -0.73803,-0.43051c-0.35466,-0.123 -0.87436,-0.21864 -1.55805,-0.28701c-0.82003,-0.082 -1.53038,-0.21864 -2.13207,-0.41001c-0.60067,-0.20501 -1.06604,-0.53302 -1.39405,-0.98403c-0.32801,-0.46468 -0.49202,-1.1002 -0.49202,-1.90657c0,-1.27104 0.47869,-2.29608 1.43505,-3.07511c0.95738,-0.79269 2.31658,-1.18904 4.07964,-1.18904zM174.01193,198.50189c-0.84729,0 -1.55119,-0.15714 -2.11157,-0.47152c-0.54665,-0.32801 -0.95667,-0.8269 -1.23004,-1.49655c-0.19127,-0.46465 -0.33478,-1.02504 -0.43051,-1.68106c-0.082,-0.66966 -0.123,-1.43505 -0.123,-2.29608c0,-1.47605 0.04787,-2.69246 0.1435,-3.64913c0.09574,-0.9704 0.23238,-1.74943 0.41001,-2.33708c0.19137,-0.60139 0.40325,-1.08654 0.63552,-1.45555c0.36901,-0.56039 0.95677,-1.0114 1.76306,-1.35305c0.8064,-0.34164 1.94757,-0.51252 3.42362,-0.51252c0.98403,0 1.76993,0.15037 2.35758,0.45102c0.60139,0.28701 1.0319,0.66966 1.29154,1.14804c0.27338,0.47838 0.41001,1.0114 0.41001,1.59906c0,0.9294 -0.27327,1.69469 -0.82003,2.29608c-0.54665,0.60139 -1.26418,1.07967 -2.15257,1.43505v0.082c0.9704,0.10937 1.72206,0.42365 2.25508,0.94303c0.54675,0.50565 0.82003,1.23004 0.82003,2.17308c0,0.75166 -0.19127,1.44192 -0.57402,2.07057c-0.36901,0.61502 -0.87466,1.15491 -1.51705,1.61956c-0.62865,0.45102 -1.33931,0.8064 -2.13207,1.06604c-0.79266,0.24601 -1.59906,0.36901 -2.41908,0.36901zM174.64745,196.04181c0.65602,0 1.23691,-0.10937 1.74256,-0.32801c0.51939,-0.21864 0.92253,-0.51252 1.20954,-0.88153c0.30075,-0.38265 0.45102,-0.81316 0.45102,-1.29154c0,-0.51939 -0.25277,-0.9499 -0.75853,-1.29154c-0.49202,-0.35538 -1.26418,-0.53302 -2.31658,-0.53302c-0.71066,0 -1.27781,0.17087 -1.70156,0.51252c-0.41001,0.32801 -0.61502,0.89516 -0.61502,1.70156c0,0.76539 0.16401,1.31205 0.49202,1.64006c0.32801,0.31438 0.8269,0.47152 1.49655,0.47152zM174.72945,189.54308c0.9294,0 1.70156,-0.20501 2.31658,-0.61502c0.62876,-0.42365 0.94303,-0.9704 0.94303,-1.64006c0,-0.49202 -0.19814,-0.8884 -0.59452,-1.18904c-0.39628,-0.30064 -0.97717,-0.45102 -1.74256,-0.45102c-0.83366,0 -1.51705,0.16401 -2.05007,0.49202c-0.53302,0.32801 -0.79953,0.8884 -0.79953,1.68106c0,0.64239 0.17087,1.09341 0.51252,1.35305c0.35538,0.24601 0.8269,0.36901 1.41455,0.36901zM191.88619,198.6044c-0.46475,0 -0.78589,-0.17764 -0.96353,-0.53302c-0.16401,-0.36901 -0.25974,-0.9499 -0.28701,-1.74256l0.20501,0.1025c-0.76539,1.48968 -2.21408,2.23458 -4.34615,2.23458c-0.9704,0 -1.7768,-0.17087 -2.41908,-0.51252c-0.64239,-0.35538 -1.12077,-0.82003 -1.43505,-1.39405c-0.30075,-0.58765 -0.45102,-1.22317 -0.45102,-1.90657c0,-1.17541 0.41001,-2.10471 1.23004,-2.7881c0.82003,-0.69702 1.90657,-1.04554 3.25961,-1.04554c0.8883,0 1.66056,0.12987 2.31658,0.38951c0.65602,0.25964 1.21631,0.62189 1.68106,1.08654l-0.34851,-0.041c-0.09574,-1.38042 -0.39638,-2.36445 -0.90203,-2.9521c-0.49202,-0.60139 -1.19591,-0.90203 -2.11157,-0.90203c-0.53302,0 -1.02504,0.082 -1.47605,0.24601c-0.45102,0.16401 -0.8679,0.33488 -1.25054,0.51252c-0.36901,0.16401 -0.71752,0.24601 -1.04554,0.24601c-0.32801,0 -0.58776,-0.10937 -0.77903,-0.32801c-0.17774,-0.21864 -0.26651,-0.49888 -0.26651,-0.84053c0,-0.49202 0.23227,-0.95667 0.69702,-1.39405c0.47828,-0.43738 1.10704,-0.79266 1.88607,-1.06604c0.77903,-0.27338 1.62632,-0.41001 2.54209,-0.41001c1.10704,0 2.05684,0.26651 2.8496,0.79953c0.79266,0.53302 1.39405,1.31205 1.80406,2.33708c0.35528,0.87466 0.60815,1.85193 0.75853,2.9316c0.15027,1.07967 0.22551,2.23458 0.22551,3.46462c0,0.9294 -0.04787,1.64692 -0.1435,2.15257c-0.09574,0.50565 -0.24601,0.86103 -0.45102,1.06604c-0.19137,0.19137 -0.45102,0.28701 -0.77903,0.28701zM187.35553,196.30832c0.45102,0 0.9088,-0.0615 1.37355,-0.18451c0.46465,-0.13664 0.85416,-0.33488 1.16854,-0.59452c0.31428,-0.25964 0.47152,-0.58089 0.47152,-0.96353c0,-0.32801 -0.13674,-0.59452 -0.41001,-0.79953c-0.25974,-0.21864 -0.60826,-0.38265 -1.04554,-0.49202c-0.42375,-0.10937 -0.88153,-0.16401 -1.37355,-0.16401c-0.83376,0 -1.46929,0.1435 -1.90657,0.43051c-0.42375,0.28701 -0.63552,0.66966 -0.63552,1.14804c0,0.51939 0.19814,0.92253 0.59452,1.20954c0.41001,0.27338 0.99767,0.41001 1.76306,0.41001zM197.85139,185.64795c0.43738,0 0.73116,0.17764 0.88153,0.53302c0.16401,0.35538 0.24601,0.88153 0.24601,1.57855c0,0.16401 -0.01363,0.34164 -0.041,0.53302c-0.01363,0.17764 -0.041,0.34164 -0.082,0.49202l-0.041,-0.41001c0.32801,-0.8884 0.83366,-1.57855 1.51705,-2.07057c0.68339,-0.50565 1.40768,-0.75853 2.17308,-0.75853c0.8474,0 1.55119,0.23914 2.11157,0.71752c0.57402,0.47838 0.99767,1.14804 1.27104,2.00907c0.28701,0.86103 0.43051,1.8792 0.43051,3.05461c0,0.72439 -0.03413,1.44192 -0.1025,2.15257c-0.05463,0.69702 -0.13664,1.33941 -0.24601,1.92707c-0.09564,0.57402 -0.20501,1.04554 -0.32801,1.41455c-0.16401,0.46465 -0.37588,0.81316 -0.63552,1.04554c-0.25964,0.21864 -0.56715,0.32801 -0.92253,0.32801c-0.35538,0 -0.62865,-0.12987 -0.82003,-0.38951c-0.19137,-0.25964 -0.28701,-0.60815 -0.28701,-1.04554c0,-0.46465 0.03413,-1.02504 0.1025,-1.68106c0.06837,-0.66966 0.12987,-1.34618 0.18451,-2.02957c0.06837,-0.69702 0.1025,-1.32568 0.1025,-1.88607c0,-1.91343 -0.62865,-2.8701 -1.88607,-2.8701c-0.66966,0 -1.23004,0.30064 -1.68106,0.90203c-0.45102,0.58765 -0.75166,1.42818 -0.90203,2.52159c-0.041,0.36901 -0.0615,0.8269 -0.0615,1.37355c0,0.54665 0,1.09341 0,1.64006c0.01363,0.53302 0,0.98403 -0.041,1.35305c-0.05463,0.82003 -0.21187,1.40768 -0.47152,1.76306c-0.24601,0.35538 -0.58765,0.53302 -1.02504,0.53302c-0.50565,0 -0.8884,-0.23238 -1.14804,-0.69702c-0.25964,-0.47838 -0.38951,-1.27791 -0.38951,-2.39858c0,-0.57402 0.01363,-1.21641 0.041,-1.92707c0.02737,-0.71066 0.0615,-1.42142 0.1025,-2.13207c0.05463,-0.72439 0.11614,-1.38042 0.18451,-1.96807c0.13664,-1.10704 0.33488,-1.9817 0.59452,-2.62409c0.25964,-0.65602 0.64916,-0.98403 1.16854,-0.98403zM212.72916,198.07138c-1.28478,0 -2.33032,-0.49202 -3.13661,-1.47605c-0.8064,-0.99767 -1.20954,-2.50795 -1.20954,-4.53066c0,-2.15944 0.38951,-3.738 1.16854,-4.73566c0.77903,-0.99767 1.80406,-1.49655 3.07511,-1.49655c0.75166,0 1.41455,0.19137 1.98857,0.57402c0.57402,0.38265 1.06604,0.92253 1.47605,1.61956l-0.16401,0.28701c-0.041,-0.19137 -0.07524,-0.39638 -0.1025,-0.61502c-0.02737,-0.21864 -0.041,-0.38265 -0.041,-0.49202c0,-0.56039 0.08877,-0.9909 0.26651,-1.29154c0.19127,-0.31438 0.48515,-0.47152 0.88153,-0.47152c0.43728,0 0.77903,0.17764 1.02504,0.53302c0.25964,0.35538 0.45778,0.86103 0.59452,1.51705c0.17764,0.66966 0.32801,1.52392 0.45102,2.56259c0.123,1.02504 0.18451,2.0637 0.18451,3.11611c0,1.31205 -0.04787,2.41222 -0.1435,3.30061c-0.09574,0.8884 -0.25288,1.62642 -0.47152,2.21408c-0.21874,0.58765 -0.50575,1.10017 -0.86103,1.53755c-0.58776,0.71066 -1.34628,1.25054 -2.27558,1.61956c-0.91577,0.38265 -1.97494,0.57402 -3.17761,0.57402c-0.86103,0 -1.55129,-0.082 -2.07057,-0.24601c-0.51939,-0.15037 -0.89527,-0.36215 -1.12754,-0.63552c-0.21874,-0.25964 -0.32801,-0.55352 -0.32801,-0.88153c0,-0.34164 0.09564,-0.62865 0.28701,-0.86103c0.19127,-0.21864 0.47828,-0.32801 0.86103,-0.32801c0.34164,0 0.73803,0.05463 1.18904,0.16401c0.46465,0.10937 1.0113,0.16401 1.64006,0.16401c1.32568,0 2.26184,-0.31438 2.8086,-0.94303c0.56028,-0.61502 0.84053,-1.50342 0.84053,-2.66509c0,-0.31438 -0.0205,-0.68339 -0.0615,-1.10704l0.28701,0.1025c-0.34175,0.87466 -0.8474,1.57855 -1.51705,2.11157c-0.66976,0.51939 -1.44879,0.77903 -2.33708,0.77903zM213.50819,195.54979c0.43728,0 0.87466,-0.11614 1.31205,-0.34851c0.43728,-0.23238 0.79953,-0.61502 1.08654,-1.14804c0.28701,-0.53302 0.43051,-1.25054 0.43051,-2.15257c0,-1.07967 -0.25288,-1.9612 -0.75853,-2.64459c-0.50575,-0.68339 -1.21641,-1.02504 -2.13207,-1.02504c-0.79276,0 -1.37355,0.30064 -1.74256,0.90203c-0.36901,0.60139 -0.55352,1.51018 -0.55352,2.72659c0,1.16167 0.18451,2.07057 0.55352,2.72659c0.36901,0.64239 0.9703,0.96353 1.80406,0.96353zM230.91186,198.27638c-0.36901,0 -0.65602,-0.123 -0.86103,-0.36901c-0.19137,-0.25964 -0.32125,-0.58765 -0.38951,-0.98403c-0.06837,-0.41001 -0.1025,-0.84053 -0.1025,-1.29154l0.1025,-0.082c-0.13674,0.58765 -0.40325,1.09341 -0.79953,1.51705c-0.39638,0.42365 -0.85426,0.75166 -1.37355,0.98403c-0.51939,0.21864 -1.03877,0.32801 -1.55805,0.32801c-0.69702,0 -1.33255,-0.16401 -1.90657,-0.49202c-0.57402,-0.32801 -1.01827,-0.83366 -1.33255,-1.51705c-0.31438,-0.72439 -0.56039,-1.63319 -0.73803,-2.72659c-0.17774,-1.10704 -0.26651,-2.24145 -0.26651,-3.40312c0,-0.62865 0.02727,-1.20954 0.082,-1.74256c0.05463,-0.53302 0.1435,-0.9704 0.26651,-1.31205c0.10927,-0.35538 0.27327,-0.61502 0.49202,-0.77903c0.21864,-0.17764 0.49878,-0.26651 0.84053,-0.26651c0.39628,0 0.70379,0.15714 0.92253,0.47152c0.23227,0.30064 0.37578,0.72439 0.43051,1.27104c0.05463,0.45102 0.08877,1.0114 0.1025,1.68106c0.02727,0.65602 0.04777,1.31891 0.0615,1.98857c0.02727,0.65602 0.0615,1.20954 0.1025,1.66056c0.082,0.82003 0.29378,1.42818 0.63552,1.82456c0.34164,0.38265 0.75853,0.57402 1.25054,0.57402c0.72429,0 1.27781,-0.27338 1.66056,-0.82003c0.38265,-0.54665 0.57402,-1.31205 0.57402,-2.29608c0,-0.49202 -0.02737,-1.04554 -0.082,-1.66056c-0.05474,-0.62865 -0.11624,-1.23691 -0.18451,-1.82456c-0.05474,-0.58765 -0.082,-1.0729 -0.082,-1.45555c0,-0.64239 0.10927,-1.10017 0.32801,-1.37355c0.21864,-0.28701 0.51928,-0.43051 0.90203,-0.43051c0.32801,0 0.60129,0.08887 0.82003,0.26651c0.23227,0.17764 0.41678,0.42365 0.55352,0.73803c0.19127,0.41001 0.35528,0.9704 0.49202,1.68106c0.13664,0.71066 0.24601,1.51705 0.32801,2.41908c0.082,0.90203 0.123,1.85193 0.123,2.8496c0,1.53069 -0.1025,2.67873 -0.30751,3.44412c-0.20501,0.75166 -0.56725,1.12754 -1.08654,1.12754zM236.89079,185.64795c0.43738,0 0.73126,0.17764 0.88153,0.53302c0.16401,0.35538 0.24601,0.88153 0.24601,1.57855c0,0.16401 -0.01363,0.34164 -0.041,0.53302c-0.01363,0.17764 -0.041,0.34164 -0.082,0.49202l-0.041,-0.41001c0.32801,-0.8884 0.83376,-1.57855 1.51705,-2.07057c0.68339,-0.50565 1.40778,-0.75853 2.17308,-0.75853c0.8474,0 1.55129,0.23914 2.11157,0.71752c0.57402,0.47838 0.99777,1.14804 1.27104,2.00907c0.28701,0.86103 0.43051,1.8792 0.43051,3.05461c0,0.72439 -0.03413,1.44192 -0.1025,2.15257c-0.05463,0.69702 -0.13664,1.33941 -0.24601,1.92707c-0.09564,0.57402 -0.20501,1.04554 -0.32801,1.41455c-0.16401,0.46465 -0.37578,0.81316 -0.63552,1.04554c-0.25964,0.21864 -0.56715,0.32801 -0.92253,0.32801c-0.35528,0 -0.62865,-0.12987 -0.82003,-0.38951c-0.19127,-0.25964 -0.28701,-0.60815 -0.28701,-1.04554c0,-0.46465 0.03424,-1.02504 0.1025,-1.68106c0.06837,-0.66966 0.12987,-1.34618 0.18451,-2.02957c0.06837,-0.69702 0.1025,-1.32568 0.1025,-1.88607c0,-1.91343 -0.62865,-2.8701 -1.88607,-2.8701c-0.66966,0 -1.23004,0.30064 -1.68106,0.90203c-0.45102,0.58765 -0.75166,1.42818 -0.90203,2.52159c-0.041,0.36901 -0.0615,0.8269 -0.0615,1.37355c0,0.54665 0,1.09341 0,1.64006c0.01374,0.53302 0,0.98403 -0.041,1.35305c-0.05463,0.82003 -0.21177,1.40768 -0.47152,1.76306c-0.24601,0.35538 -0.58765,0.53302 -1.02504,0.53302c-0.50565,0 -0.8883,-0.23238 -1.14804,-0.69702c-0.25964,-0.47838 -0.38951,-1.27791 -0.38951,-2.39858c0,-0.57402 0.01374,-1.21641 0.041,-1.92707c0.02737,-0.71066 0.0615,-1.42142 0.1025,-2.13207c0.05474,-0.72439 0.11624,-1.38042 0.18451,-1.96807c0.13674,-1.10704 0.33488,-1.9817 0.59452,-2.62409c0.25974,-0.65602 0.64926,-0.98403 1.16854,-0.98403zM254.82717,198.87091c-0.86103,0 -1.53069,-0.05463 -2.00907,-0.16401c-0.46465,-0.10937 -0.78579,-0.25964 -0.96353,-0.45102c-0.17764,-0.20501 -0.27327,-0.43051 -0.28701,-0.67652c0,-0.38265 0.22551,-0.70389 0.67652,-0.96353c0.46475,-0.25964 1.31205,-0.42365 2.54209,-0.49202l-0.32801,0.38951c-0.15027,-0.69702 -0.25964,-1.51018 -0.32801,-2.43958c-0.06827,-0.9294 -0.09564,-1.89293 -0.082,-2.8906c0.01374,-0.99767 0.0615,-1.94757 0.1435,-2.8496c0.082,-0.91566 0.19824,-1.69469 0.34851,-2.33708l1.78356,-0.123c-0.30064,0.123 -0.67652,0.23238 -1.12754,0.32801c-0.45102,0.082 -0.91566,0.123 -1.39405,0.123c-0.87466,0 -1.52382,-0.09564 -1.94757,-0.28701c-0.41001,-0.19137 -0.61502,-0.45788 -0.61502,-0.79953c0,-0.60139 0.36225,-1.06604 1.08654,-1.39405c0.73803,-0.34164 1.86556,-0.51252 3.38262,-0.51252c1.80396,0 3.32101,0.30064 4.55106,0.90203c1.24337,0.58765 2.1864,1.41455 2.8291,2.48059c0.6427,1.0524 0.96353,2.28245 0.96353,3.69013c0,1.23004 -0.21833,2.36445 -0.65602,3.40312c-0.43769,1.02504 -1.06604,1.9202 -1.88607,2.68559c-0.8067,0.75166 -1.77639,1.33941 -2.9111,1.76306c-1.12036,0.41001 -2.37798,0.61502 -3.77203,0.61502zM257.73817,195.7138c0.46434,0 0.95636,-0.18451 1.47605,-0.55352c0.53302,-0.38265 0.98403,-0.93617 1.35305,-1.66056c0.36901,-0.73803 0.55352,-1.64692 0.55352,-2.72659c0,-0.79266 -0.11583,-1.48292 -0.34851,-2.07057c-0.21833,-0.60139 -0.50534,-1.10017 -0.86103,-1.49655c-0.35569,-0.39638 -0.73085,-0.69016 -1.12754,-0.88153c-0.39669,-0.20501 -0.77185,-0.30751 -1.12754,-0.30751c-0.28701,0 -0.51252,0.17764 -0.67652,0.53302c-0.15068,0.35538 -0.25933,0.8884 -0.32801,1.59906c-0.06816,0.69702 -0.1024,1.56492 -0.1024,2.60359c0,1.61269 0.082,2.84273 0.24591,3.69013c0.16401,0.8474 0.47869,1.27104 0.94303,1.27104zM275.27038,198.6044c-0.46434,0 -0.7862,-0.17764 -0.96353,-0.53302c-0.16401,-0.36901 -0.25933,-0.9499 -0.28701,-1.74256l0.20501,0.1025c-0.7657,1.48968 -2.21408,2.23458 -4.34615,2.23458c-0.97071,0 -1.77639,-0.17087 -2.41908,-0.51252c-0.6427,-0.35538 -1.12036,-0.82003 -1.43505,-1.39405c-0.30034,-0.58765 -0.45102,-1.22317 -0.45102,-1.90657c0,-1.17541 0.41001,-2.10471 1.23004,-2.7881c0.82003,-0.69702 1.90657,-1.04554 3.25961,-1.04554c0.88871,0 1.66056,0.12987 2.31658,0.38951c0.65602,0.25964 1.21672,0.62189 1.68106,1.08654l-0.34851,-0.041c-0.09533,-1.38042 -0.39669,-2.36445 -0.90203,-2.9521c-0.49202,-0.60139 -1.19622,-0.90203 -2.11157,-0.90203c-0.53302,0 -1.02504,0.082 -1.47605,0.24601c-0.45102,0.16401 -0.86821,0.33488 -1.25054,0.51252c-0.36901,0.16401 -0.71752,0.24601 -1.04554,0.24601c-0.32801,0 -0.58735,-0.10937 -0.77903,-0.32801c-0.17733,-0.21864 -0.26651,-0.49888 -0.26651,-0.84053c0,-0.49202 0.23268,-0.95667 0.69702,-1.39405c0.47869,-0.43738 1.10704,-0.79266 1.88607,-1.06604c0.77903,-0.27338 1.62673,-0.41001 2.54209,-0.41001c1.10704,0 2.05725,0.26651 2.8496,0.79953c0.79235,0.53302 1.39405,1.31205 1.80406,2.33708c0.35569,0.87466 0.60785,1.85193 0.75853,2.9316c0.15068,1.07967 0.22551,2.23458 0.22551,3.46462c0,0.9294 -0.04818,1.64692 -0.1435,2.15257c-0.09533,0.50565 -0.24601,0.86103 -0.45102,1.06604c-0.19168,0.19137 -0.45102,0.28701 -0.77903,0.28701zM270.73972,196.30832c0.45102,0 0.90921,-0.0615 1.37355,-0.18451c0.46434,-0.13664 0.85385,-0.33488 1.16854,-0.59452c0.31469,-0.25964 0.47152,-0.58089 0.47152,-0.96353c0,-0.32801 -0.13633,-0.59452 -0.41001,-0.79953c-0.25933,-0.21864 -0.60785,-0.38265 -1.04554,-0.49202c-0.42334,-0.10937 -0.88153,-0.16401 -1.37355,-0.16401c-0.83335,0 -1.46888,0.1435 -1.90657,0.43051c-0.42334,0.28701 -0.63552,0.66966 -0.63552,1.14804c0,0.51939 0.19783,0.92253 0.59452,1.20954c0.41001,0.27338 0.99736,0.41001 1.76306,0.41001zM281.98846,186.05796h-0.41001c-0.041,-0.60139 -0.02768,-1.16854 0.041,-1.70156c0.06868,-0.54665 0.21218,-0.98403 0.43051,-1.31205c0.23268,-0.34164 0.56069,-0.51252 0.98403,-0.51252c0.38234,0 0.6632,0.123 0.84053,0.36901c0.17733,0.24601 0.26651,0.58765 0.26651,1.02504c0,0.86103 -0.16401,1.59906 -0.49202,2.21408l-0.36901,-0.041c0.73803,-0.25964 1.57138,-0.38951 2.50109,-0.38951c0.58735,0 1.05271,0.11614 1.39405,0.34851c0.35569,0.21864 0.53302,0.59452 0.53302,1.12754c0,0.50565 -0.20501,0.8884 -0.61502,1.14804c-0.41001,0.25964 -0.92253,0.38951 -1.53755,0.38951c-0.36901,0 -0.7657,-0.01363 -1.18904,-0.041c-0.41001,-0.041 -0.81285,-0.1025 -1.20954,-0.18451l0.34851,-0.43051c0.123,0.51939 0.23883,1.11391 0.34851,1.78356c0.123,0.65602 0.23268,1.33941 0.32801,2.05007c0.09533,0.71066 0.17118,1.40092 0.22551,2.07057c0.05433,0.66966 0.082,1.27104 0.082,1.80406c0,0.87466 -0.13633,1.56492 -0.41001,2.07057c-0.27368,0.50565 -0.67652,0.75853 -1.20954,0.75853c-0.42334,0 -0.75853,-0.12987 -1.00453,-0.38951c-0.23268,-0.25964 -0.40284,-0.58765 -0.51252,-0.98403c-0.09533,-0.41001 -0.15683,-0.83366 -0.18451,-1.27104c-0.01333,-0.43738 -0.0205,-0.83366 -0.0205,-1.18904c0,-0.60139 0.02768,-1.27791 0.082,-2.02957c0.05433,-0.76539 0.13018,-1.55119 0.22551,-2.35758c0.10968,-0.8064 0.23268,-1.58542 0.36901,-2.33708l0.41001,0.34851c-0.69702,0.35538 -1.55805,0.53302 -2.58309,0.53302c-0.62835,0 -1.11421,-0.11614 -1.45555,-0.34851c-0.34134,-0.23238 -0.51252,-0.59452 -0.51252,-1.08654c0,-0.53302 0.19168,-0.94303 0.57402,-1.23004c0.38234,-0.30064 0.89486,-0.45102 1.53755,-0.45102c0.42334,0 0.82003,0.02737 1.18904,0.082c0.38234,0.041 0.71752,0.09564 1.00453,0.16401zM298.33368,198.6044c-0.46434,0 -0.7862,-0.17764 -0.96353,-0.53302c-0.16401,-0.36901 -0.25933,-0.9499 -0.28701,-1.74256l0.20501,0.1025c-0.7657,1.48968 -2.21408,2.23458 -4.34615,2.23458c-0.97071,0 -1.77639,-0.17087 -2.41908,-0.51252c-0.6427,-0.35538 -1.12036,-0.82003 -1.43505,-1.39405c-0.30034,-0.58765 -0.45102,-1.22317 -0.45102,-1.90657c0,-1.17541 0.41001,-2.10471 1.23004,-2.7881c0.82003,-0.69702 1.90657,-1.04554 3.25961,-1.04554c0.88871,0 1.66056,0.12987 2.31658,0.38951c0.65602,0.25964 1.21672,0.62189 1.68106,1.08654l-0.34851,-0.041c-0.09533,-1.38042 -0.39669,-2.36445 -0.90203,-2.9521c-0.49202,-0.60139 -1.19622,-0.90203 -2.11157,-0.90203c-0.53302,0 -1.02504,0.082 -1.47605,0.24601c-0.45102,0.16401 -0.86821,0.33488 -1.25054,0.51252c-0.36901,0.16401 -0.71752,0.24601 -1.04554,0.24601c-0.32801,0 -0.58735,-0.10937 -0.77903,-0.32801c-0.17733,-0.21864 -0.26651,-0.49888 -0.26651,-0.84053c0,-0.49202 0.23268,-0.95667 0.69702,-1.39405c0.47869,-0.43738 1.10704,-0.79266 1.88607,-1.06604c0.77903,-0.27338 1.62673,-0.41001 2.54209,-0.41001c1.10704,0 2.05725,0.26651 2.8496,0.79953c0.79235,0.53302 1.39405,1.31205 1.80406,2.33708c0.35569,0.87466 0.60785,1.85193 0.75853,2.9316c0.15068,1.07967 0.22551,2.23458 0.22551,3.46462c0,0.9294 -0.04818,1.64692 -0.1435,2.15257c-0.09533,0.50565 -0.24601,0.86103 -0.45102,1.06604c-0.19168,0.19137 -0.45102,0.28701 -0.77903,0.28701zM293.80302,196.30832c0.45102,0 0.90921,-0.0615 1.37355,-0.18451c0.46434,-0.13664 0.85385,-0.33488 1.16854,-0.59452c0.31469,-0.25964 0.47152,-0.58089 0.47152,-0.96353c0,-0.32801 -0.13633,-0.59452 -0.41001,-0.79953c-0.25933,-0.21864 -0.60785,-0.38265 -1.04554,-0.49202c-0.42334,-0.10937 -0.88153,-0.16401 -1.37355,-0.16401c-0.83335,0 -1.46888,0.1435 -1.90657,0.43051c-0.42334,0.28701 -0.63552,0.66966 -0.63552,1.14804c0,0.51939 0.19783,0.92253 0.59452,1.20954c0.41001,0.27338 0.99736,0.41001 1.76306,0.41001zM302.20831,189.15357c0,-1.31205 0.123,-2.25508 0.36901,-2.8291c0.24601,-0.58765 0.59452,-0.88153 1.04554,-0.88153c0.35466,0 0.63552,0.15037 0.84053,0.45102c0.20501,0.28701 0.35466,0.64916 0.45102,1.08654c0.09533,0.42365 0.1435,0.85416 0.1435,1.29154l-0.1025,-0.041c0.23166,-0.73803 0.58735,-1.37355 1.06604,-1.90657c0.49202,-0.53302 1.07936,-0.79953 1.76306,-0.79953c0.80568,0 1.4002,0.33488 1.78356,1.00453c0.38234,0.65602 0.57402,1.47605 0.57402,2.46009c0,1.31205 -0.15068,2.22771 -0.45102,2.7471c-0.30136,0.51939 -0.7042,0.77903 -1.20954,0.77903c-0.36901,0 -0.6427,-0.15037 -0.82003,-0.45102c-0.16401,-0.30064 -0.21936,-0.83366 -0.16401,-1.59906c0.05433,-0.8064 0.00615,-1.36668 -0.1435,-1.68106c-0.15068,-0.31438 -0.38951,-0.47152 -0.71752,-0.47152c-0.39669,0 -0.7247,0.25288 -0.98403,0.75853c-0.24601,0.49202 -0.36901,1.10017 -0.36901,1.82456c0,0.28701 0.03383,0.64916 0.1025,1.08654c0.06765,0.43738 0.1435,0.91566 0.22551,1.43505c0.082,0.50565 0.15683,1.0114 0.22551,1.51705c0.06765,0.50565 0.1025,0.9704 0.1025,1.39405c0,0.75166 -0.11685,1.29154 -0.34851,1.61956c-0.23268,0.32801 -0.56069,0.49202 -0.98403,0.49202c-0.47869,0 -0.8477,-0.15037 -1.10704,-0.45102c-0.26036,-0.31438 -0.45819,-0.82003 -0.59452,-1.51705c-0.10968,-0.62865 -0.21936,-1.37355 -0.32801,-2.23458c-0.10968,-0.86103 -0.19886,-1.74256 -0.26651,-2.64459c-0.06868,-0.90203 -0.1025,-1.71519 -0.1025,-2.43958z"/></g></g></svg>